<svg width="247" height="247" viewBox="0 0 247 247" fill="none" xmlns="http://www.w3.org/2000/svg">
    <rect width="247" height="247" rx="25" fill="#0D0D4E" />
    <path
        d="M86.6158 181.397C77.4538 181.362 69.5703 179.107 62.9652 174.632C56.3956 170.158 51.3352 163.677 47.7841 155.19C44.2685 146.702 42.5284 136.493 42.5639 124.561C42.5639 112.665 44.3217 102.526 47.8374 94.1456C51.3885 85.7649 56.4489 79.3906 63.0185 75.0227C69.6236 70.6193 77.4893 68.4176 86.6158 68.4176C95.7422 68.4176 103.59 70.6193 110.16 75.0227C116.765 79.4261 121.843 85.8182 125.394 94.1989C128.945 102.544 130.703 112.665 130.668 124.561C130.668 136.528 128.892 146.756 125.341 155.243C121.825 163.73 116.783 170.211 110.213 174.685C103.643 179.16 95.7777 181.397 86.6158 181.397ZM86.6158 162.274C92.8658 162.274 97.8551 159.131 101.584 152.846C105.313 146.56 107.159 137.132 107.124 124.561C107.124 116.287 106.271 109.398 104.567 103.893C102.898 98.3892 100.518 94.2521 97.429 91.4822C94.375 88.7124 90.7706 87.3274 86.6158 87.3274C80.4013 87.3274 75.4297 90.4347 71.701 96.6491C67.9723 102.864 66.0902 112.168 66.0547 124.561C66.0547 132.942 66.8892 139.938 68.5582 145.548C70.2628 151.124 72.6598 155.314 75.7493 158.119C78.8388 160.889 82.4609 162.274 86.6158 162.274ZM194.575 69.9091V179H171.51V91.8018H170.871L145.889 107.462V87.0078L172.895 69.9091H194.575Z"
        fill="white" />
</svg>
    